<svg id="Layer_1" data-name="Layer 1" xmlns="http://www.w3.org/2000/svg" viewBox="0 0 1931.67 1069.01"><defs><style>.cls-1{font-size:400.7px;}.cls-1,.cls-2{font-family:KunstlerScript, Kunstler Script;}.cls-2{font-size:72px;}.cls-3{font-size:425.69px;fill:#de0912;font-family:GraphiqueW01-Regular, GraphiqueW01-Regular;}.cls-4{fill:#f1c34d;}.cls-5{fill:#fcfcfc;}</style></defs><title>logo</title><text class="cls-1" transform="translate(0 335.79)">a</text><text class="cls-2" transform="translate(94 452.57)">m </text><text class="cls-3" transform="translate(1758 929.81)">A</text><path d="M316.63,276.5" transform="translate(836 -6.19)"/><polygon class="cls-4" points="1118.62 272.31 1128.25 254.06 1144.12 251.81 1152.75 248.06 1118.62 272.31"/><path class="cls-4" d="M270.75,288.38,309.5,262l4.75,27.38h4.38L302.5,301.5l-.5-3.87-15.87.25-3.5,7.5H268l8.63-15S278.88,285.13,270.75,288.38Z" transform="translate(836 -6.19)"/><polygon class="cls-5" points="1134.62 265.69 1127.12 281.19 1136.87 281.19 1134.62 265.69"/><polygon class="cls-4" points="1133.25 300.69 1152.12 287.69 1153.25 299.19 1137.75 299.19 1133.25 300.69"/></svg>